<svg xmlns="http://www.w3.org/2000/svg" xmlns:xlink="http://www.w3.org/1999/xlink" width="332" height="442" viewBox="0 0 332 442"><defs><style>.a{fill:#fff;stroke:#707070;}.b{clip-path:url(#a);}.c{fill:url(#b);}.d,.s,.t,.w,.x{opacity:0.5;}.d{fill:url(#c);}.e{fill:url(#d);}.f{fill:#1f1844;}.g{fill:url(#e);}.h{fill:url(#f);}.i,.v{fill:none;stroke-miterlimit:10;}.i{stroke:#fff;stroke-width:0.53px;}.j{fill:url(#g);}.k{fill:url(#h);}.l{fill:#2d1582;}.m{fill:url(#i);}.n{fill:url(#j);}.o{fill:url(#k);}.p{fill:url(#l);}.q{fill:url(#m);}.r{fill:url(#n);}.s{fill:url(#o);}.t{fill:url(#q);}.u{fill:#e9e8ee;}.v{stroke:#e8e7ed;stroke-linecap:round;stroke-width:2.12px;}.w{fill:url(#s);}.x{fill:url(#t);}.y{fill:#e8e7ed;}</style><clipPath id="a"><rect class="a" width="332" height="442" transform="translate(0 36)"/></clipPath><linearGradient id="b" y1="0.5" x2="1" y2="0.5" gradientUnits="objectBoundingBox"><stop offset="0" stop-color="#f0f2f5"/><stop offset="0.99" stop-color="#f5f7f8"/></linearGradient><linearGradient id="c" y1="0.5" x2="1" y2="0.5" gradientUnits="objectBoundingBox"><stop offset="0" stop-color="#a7a5ee"/><stop offset="0.44" stop-color="#9d9ce8"/><stop offset="0.89" stop-color="#8988d5"/></linearGradient><linearGradient id="d" y1="0.5" x2="1" y2="0.5" gradientUnits="objectBoundingBox"><stop offset="0" stop-color="#753200"/><stop offset="1" stop-color="#a04400"/></linearGradient><linearGradient id="e" x1="-77.819" y1="30.769" x2="-78.495" y2="29.827" xlink:href="#d"/><linearGradient id="f" x1="1.65" y1="0.501" x2="2.65" y2="0.501" xlink:href="#c"/><linearGradient id="g" x1="0" x2="1" xlink:href="#c"/><linearGradient id="h" x1="0" y1="0.5" y2="0.5" xlink:href="#d"/><linearGradient id="i" x1="0.001" y1="0.498" x2="1.001" y2="0.498" xlink:href="#d"/><linearGradient id="j" x1="-11.918" y1="4.087" x2="-10.75" y2="3.751" xlink:href="#d"/><linearGradient id="k" x1="-142.431" y1="40.475" x2="-143.138" y2="40.872" xlink:href="#d"/><linearGradient id="l" x1="-20.638" y1="14.927" x2="-21.425" y2="16.051" gradientUnits="objectBoundingBox"><stop offset="0" stop-color="#a04400"/><stop offset="1" stop-color="#753200"/></linearGradient><linearGradient id="m" y1="0.5" x2="1" y2="0.5" gradientUnits="objectBoundingBox"><stop offset="0.01" stop-color="#2d1582"/><stop offset="1" stop-color="#4822d1"/></linearGradient><linearGradient id="n" x1="0" y1="0.5" x2="1" y2="0.5" xlink:href="#m"/><linearGradient id="o" x1="0" x2="1" xlink:href="#c"/><linearGradient id="q" x1="0" x2="1" xlink:href="#c"/><linearGradient id="s" x1="-3.389" y1="-3.348" x2="-2.402" y2="-3.348" xlink:href="#c"/><linearGradient id="t" x1="-3.26" y1="-3.329" x2="-2.275" y2="-3.329" xlink:href="#c"/></defs><g class="b" transform="translate(0 -36)"><g transform="translate(-8.589 72.031)"><path class="c" d="M329.254,193.98c-29.157-59.6-112.546-146.9-220.895-147.124-113.065-.233-124,111.9-63.061,143.08S17.133,259.956,80.83,299C145.3,338.507,283.087,334.8,317,304.061S341.845,219.729,329.254,193.98Z"/><path class="d" d="M264.916,118.449S253.178,101.216,231.96,99.16c0-14.388.647-54.614.647-54.614s33.1,2.6,32.924,12.31S264.916,118.449,264.916,118.449Z"/><path class="e" d="M130.171,301.253v8.081l-13.911,1.457-.3-3.556,1.627-5.018Z"/><path class="f" d="M148.379,320.992v1.918a3.582,3.582,0,0,1-3.349,3.566,40.893,40.893,0,0,1-9.009-.45,97.233,97.233,0,0,1-16.56-4.239c-2.782-.927-4.107-.927-4.5-2.517a21.331,21.331,0,0,1,.1-5.342l16.539,3.773Z"/><path class="g" d="M157.87,290.94l2.713,7.324-1.039,7.562-2.03,1.8-8.521-2.56-2.093-3.233,2.178-11.468Z"/><path class="f" d="M145.73,307.236v3.259a2.321,2.321,0,0,0,2,2.3c2.289.318,5.972.853,7.949,1.245,3.042.594,10.312,3.238,14.409,3.5s8.723.329,10.773-.991,1.59-4.43,1.59-4.43Z"/><path class="h" d="M146.927,298.513s-2.12,8.065-.927,9.253,10.111,1.786,12.49,3.307,12.093,3.9,17.249,3.5,6.608-1.06,6.741-2.443-10.243-3.307-12.093-4.7-2.973-6.28-5.554-7.949-.594-4.626-3.307-4.769-1.982,4.239-6.015,4.494a36.265,36.265,0,0,1-8.585-.7Z"/><path class="f" d="M130.3,164.4s-5.3,5.3-5.034,17.488,3.445,42.659,1.325,51.933-7.154,23.052-8.214,38.685-2.12,31.531-2.12,31.531h15.368s-2.915-16.163,1.59-27.291,9.8-29.146,11.923-34.71a89.636,89.636,0,0,0,2.915-8.675s-3.974,40.211-3.974,49.485.53,17.488,2.925,17.223,10.323-3.71,11.383-4.5,2.385-14.043,2.12-18.812,2.12-31,2.12-31,6.624-20.137,8.479-28.881,1.325-45.044,1.325-45.044l-2.915-5.829Z"/><path class="i" d="M157.33,197.52c-5.034,5.3-9.274,36.7-9.274,36.7"/><path class="j" d="M125.667,305.911c.2-.17.44-.392.7-.641,1.622-1.563,4.239-4.266,6.19-2.432,2.252,2.12,1.463,8.415,8.214,11.786,2.019,1.007,9.141,5.713,7.286,7.17s-1.325,1.192-11.128.795-21.992-7.949-21.992-7.949.461-9.936,1.325-9.936-.132,3.71,2.65,4.123S125.667,305.911,125.667,305.911Z"/><path class="k" d="M227.943,69.744c-.069.392-1.457.461-3.445.795s-2.454,1.325-3.18,1.786-1.192,1.521-.652,1.786,3.036-1.786,3.635-1.786,1.256.864,1.325,1.192a12.962,12.962,0,0,1,1.256,2.448.949.949,0,0,1-.864,1.129v1.335c0,.927-1.388,2.051-1.59,2.189s-.991-.265-1.325-.933-1.452,1.59-1.452,1.59a25.348,25.348,0,0,0-2.915,4.112,12.386,12.386,0,0,1-3.423,3.492,31.669,31.669,0,0,1-7.361-2.448,34.174,34.174,0,0,0,.779-5.829,4.239,4.239,0,0,1,1.743-3.455,34.059,34.059,0,0,1,.911-3.815,9.1,9.1,0,0,0,0-4c-.4-.991.382-1.261.768-1.214a4.992,4.992,0,0,1,2.173,2.077c.445-.594,1.335-1.791,1.531-2.183.265-.53,3.312-3.709,3.577-4.1s2.39-2.793,3.709-1.855c.7.5-.795,2.12-1.59,3.111s-4.573,6.555-3.974,6.693,2.915-2.522,3.63-2.983a3.18,3.18,0,0,1,1.8-.726,18.251,18.251,0,0,1,4.3,0C228.34,68.281,228.012,69.341,227.943,69.744Z"/><path class="l" d="M215.887,88.975c-.7,9.184-5.654,29.851-10.243,35.15s-30.736-3.709-30.736-3.709,2.522,51.233-4.192,51.4-42.267-4.239-42.267-4.239,2.295-15.193,2.766-23.492-9.009-35.505-10.36-40.894.175-11.658,2.65-13.953,15.23-5.045,17.292-5.252c16.428-1.648,26.136,10.153,28.674,11.78,4.9-.933,10.249-2.12,10.249-2.12l.106.53,1.59,7.668.53,2.65a107.219,107.219,0,0,0,14.684,4.944l3.778-8.177,1.251-2.7,4.107-8.887,1.637-3.551s.191.106.53.276l.53.254a32.268,32.268,0,0,0,6.825,2.194Z"/><path class="m" d="M207.805,87.162c-.4,0,1.855.726.132,1.924a4.849,4.849,0,0,1-2.167.609c-2.162.207-4.923-.143-5.58.048-.933.265-7.419,4.769-6.825,7.822,1.7,0,6.613-.276,8.3,1.017a1.314,1.314,0,0,1,.578,1.06c.032,1.113-.795,1.542-1.828,1.669a15.263,15.263,0,0,1-3.471-.212c-1.256-.132-3.513-.488-4.308.254a6.378,6.378,0,0,1-5.76.805c-1.441-.631-4-.466-5.474-.291l-1.59-7.668c1.993-.943,5.458-2.591,6.359-3.105,1.325-.726,6.031-2.915,7.218-3.508s5.829-2.448,6.624-2.713,8.882-1.2,9.74-.731c.62.339-.493,1.786-1.3,2.56a1.765,1.765,0,0,1-.641.461Z"/><path class="n" d="M142.476,86.505c-.117-.964-.371-3.46-.8-6.359-.3-1.993-.609-4.054-.848-5.649a2.391,2.391,0,0,0-.064-.4,20.435,20.435,0,0,0-.53-2.56l-.132-.132c-3.831-3.789-4.239-6.889-2.8-8.378a2.846,2.846,0,0,1,.657-.5h0s-2.353-5.548-1.346-10.853c1.341-7.011,10.175-9.629,16-9.613s12.443,5.151,12.315,11.658c-.048,2.591-.53,5.071-.18,7.324s2.284,5.6,1.627,9.613c-.927,5.75-6.009,8.68-9.364,9.629a11.124,11.124,0,0,1-1.3.286l.111.954.1.774.1.837a9.21,9.21,0,0,1,.122,2.353,6.179,6.179,0,0,1-5.527,5.087C145.7,91.184,142.762,88.848,142.476,86.505Z"/><path class="o" d="M140.431,64.98s-1.452-1.5-2.12-.106.975,3.381.975,3.381Z"/><path class="f" d="M142.879,67.592l.223,1.59c4.065.986,13.672,4.409,15.241,4.208,1.993-.254,1.993-2.65,3.18-2.438s1.41,1.59,2.12,1.388a11.32,11.32,0,0,0,2.925-3.413s-.154,4.118-.233,4.854c-.175,1.712-2.878,5.829-2.878,5.829a1.834,1.834,0,0,1-1.272.858l-4.653.795-2.65-.652c-3.646-.779-12.872-5.3-13.158-6.227a22.749,22.749,0,0,1-.938-5.183Z"/><path class="p" d="M140.865,74.778a20.264,20.264,0,0,0,15.1,7.785l-.1-.774-.111-.954c-4.239-.949-9.417-3.5-15.617-9.152l.132.132a20.436,20.436,0,0,1,.53,2.56C140.823,74.508,140.849,74.64,140.865,74.778Z"/><path class="q" d="M139.307,117.315c-2.878.175-16.078-8.966-16.078-8.966s10.2,10.731,15.14,11.923,43.793-15.5,43.793-15.5S142.185,117.114,139.307,117.315Z"/><path class="r" d="M139.514,96.558s1.2,3.709,2.39,4.107,19.448-3.18,24.827-4.107c.927-.159,1.929-.344,2.946-.53l-26.343,2.745-3.821-2.745"/><path class="s" d="M169.524,68.938v54.185s50.279,14.308,95.387-4.674c0-30.079.615-61.593.615-61.593C250.788,81.81,169.524,68.938,169.524,68.938Z"/><path class="d" d="M113.945,157.107l-65.25-10.964V82.563l65.25,4.112Z"/><path class="t" d="M215.887,195.607,185.755,203.3V160.4l30.132-5.331Z"/><path class="t" d="M279.9,195.607,249.77,203.3V160.4l30.132-5.331Z"/><path class="u" d="M61.933,142.137l-7.763-1.346V100.018l7.763.774Z"/><path class="u" d="M76.214,144.622l-8.166-1.42V114.8l8.166,1.007Z"/><path class="u" d="M91.243,147.235l-8.6-1.494V107.66l8.6.927Z"/><path class="u" d="M107.082,149.99l-9.062-1.574V95.382l9.062.768Z"/><path class="v" d="M174.314,115.8l6.984-12.792L191.977,115.8,206.926,92.88,216.973,115.8l5.739-11.462,7.064,5.691,11.309-27.2"/><path class="u" d="M275.562,166.058l-4.769,1.161c-1.288.313-2.273-.97-2.189-2.872h0c.085-1.9,1.2-3.667,2.485-3.948l4.769-1.028c1.224-.265,2.12,1.007,2.061,2.835h0C277.841,164.039,276.791,165.761,275.562,166.058Z"/><path class="w" d="M277.581,162.285c-.074,1.68-1.06,3.264-2.162,3.535s-2-.885-1.929-2.6,1.06-3.3,2.2-3.545S277.682,160.6,277.581,162.285Z"/><path class="u" d="M275.064,177.594l-4.769,1.388c-1.288.376-2.279-.858-2.194-2.761h0c.085-1.9,1.2-3.709,2.491-4.059l4.769-1.256c1.224-.323,2.146.9,2.067,2.734h0C277.342,175.469,276.293,177.239,275.064,177.594Z"/><path class="x" d="M277.083,173.731c-.074,1.68-1.06,3.307-2.167,3.63s-2.008-.79-1.934-2.5,1.06-3.339,2.2-3.641S277.152,172.051,277.083,173.731Z"/><path class="y" d="M236.284,59.055a7.684,7.684,0,0,0,7.679,7.679v-2.12a5.554,5.554,0,0,1-2.369-10.6l-.668-2.03a7.684,7.684,0,0,0-4.642,7.069Z"/><path class="y" d="M249.505,58.764v.291a5.526,5.526,0,0,1-.275,1.721l2.088.425a7.679,7.679,0,0,0,.3-1.934Z"/><path class="y" d="M251.636,59.055a7.684,7.684,0,0,0-7.673-7.652v2.12a5.559,5.559,0,0,1,5.543,5.262l2.12.53C251.63,59.193,251.636,59.124,251.636,59.055Z"/><line class="v" y1="3.768" x2="23.137" transform="translate(189.47 160.631)"/><line class="v" y1="4.001" x2="23.137" transform="translate(189.47 167.022)"/><line class="v" y1="4.229" x2="23.137" transform="translate(189.47 173.419)"/><line class="v" y1="4.457" x2="23.137" transform="translate(189.47 179.815)"/><line class="v" y1="4.69" x2="23.137" transform="translate(189.47 186.206)"/><line class="v" y1="4.918" x2="23.137" transform="translate(189.47 192.602)"/><line class="v" y1="1.118" x2="7.276" transform="translate(252.881 162.513)"/><line class="v" y1="1.531" x2="9.115" transform="translate(252.881 166.943)"/><line class="v" y1="1.94" x2="10.948" transform="translate(252.881 171.373)"/><line class="v" y1="2.353" x2="12.787" transform="translate(252.881 175.803)"/><line class="v" y1="2.766" x2="14.621" transform="translate(252.881 180.228)"/><line class="v" y1="3.18" x2="16.454" transform="translate(252.881 184.658)"/><line class="v" y1="3.593" x2="18.293" transform="translate(252.881 189.088)"/><line class="v" y1="4.001" x2="20.127" transform="translate(252.881 193.519)"/></g></g></svg>